# xmcd
#
# Track frame offsets: 
#        150
#        17133
#        54624
#        81961
#        128083
#        140134
#        166895
#        198237
#        233056
#        249029
#        260122
#
# Disc length: 3726 seconds
#
# Revision: 2
# Processed by: cddbd v1.5.2PL0 Copyright (c) Steve Scherf et al.
# Submitted via: ExactAudioCopy v0.99pb1
#
DISCID=930e8c0b
DTITLE=Roy Buchanan - American Axe-Live in 1974
DYEAR=2003
DGENRE=Blues/Guitar
TTITLE0=Too Many Drivers
TTITLE1=Roy's Bluz
TTITLE2=Get Out Of My Life,Woman
TTITLE3=C.C.Rider
TTITLE4=I Hear You Knockin'
TTITLE5=The Messiah Will Come Again
TTITLE6=Done Your Daddy Dirty
TTITLE7=Hey Joe
TTITLE8=Johnny B.Goode
TTITLE9=Further On Up The Road
TTITLE10=Sweet Dreams
EXTD=YEAR: 1974
EXTT0=
EXTT1=
EXTT2=
EXTT3=
EXTT4=
EXTT5=
EXTT6=
EXTT7=
EXTT8=
EXTT9=
EXTT10=
PLAYORDER=
